<svg height='300px' width='300px'  fill="#C868FF" xmlns:x="http://ns.adobe.com/Extensibility/1.0/" xmlns:i="http://ns.adobe.com/AdobeIllustrator/10.0/" xmlns:graph="http://ns.adobe.com/Graphs/1.0/" xmlns="http://www.w3.org/2000/svg" xmlns:xlink="http://www.w3.org/1999/xlink" xmlns:a="http://ns.adobe.com/AdobeSVGViewerExtensions/3.0/" version="1.1" x="0px" y="0px" viewBox="0 0 100 100" enable-background="new 0 0 100 100" xml:space="preserve"><metadata><?xpacket begin="&#65279;" id="W5M0MpCehiHzreSzNTczkc9d"?><x:xmpmeta xmlns:x="adobe:ns:meta/" x:xmptk="Adobe XMP Core 5.5-c014 79.151739, 2013/04/03-12:12:15        "></x:xmpmeta><?xpacket end="w"?></metadata><path d="M14.6064453,74.6689453l17.5,7.5c0.0133667,0.0057373,0.0281982,0.003479,0.041748,0.008606  C32.2622681,82.2208862,32.3804321,82.25,32.5,82.25s0.2377319-0.0291138,0.3518066-0.0724487  c0.0135498-0.005127,0.0283813-0.0028687,0.041748-0.008606L50,74.8375854l17.1064453,7.3313599  c0.0133667,0.0057373,0.0281982,0.003479,0.041748,0.008606C67.2622681,82.2208862,67.3804321,82.25,67.5,82.25  s0.2377319-0.0291138,0.3518066-0.0724487c0.0135498-0.005127,0.0283813-0.0028687,0.041748-0.008606l17.5-7.5  C85.7617188,74.5117188,86,74.1499023,86,73.75V53.7557983v-0.0012207V53.75c0-0.1155396-0.0264282-0.2258301-0.0640869-0.3317871  c-0.0084229-0.0238037-0.0172729-0.0473633-0.0274658-0.0704346c-0.0454712-0.1026611-0.104248-0.199707-0.182312-0.2825928  c-0.008667-0.0092163-0.0200195-0.0159912-0.0290527-0.0249023c-0.0455933-0.0448608-0.0919189-0.0892944-0.1463013-0.1252441  c-0.0391846-0.0258789-0.0825195-0.0414429-0.1242676-0.0612793c-0.0124512-0.0059204-0.0201416-0.0172119-0.032959-0.0227051  L68.5,45.5909424v-19.335144v-0.0012207V26.25c0-0.1155396-0.0264282-0.2258301-0.0640869-0.3317871  c-0.0084229-0.0238037-0.0172729-0.0473633-0.0274658-0.0704346c-0.0454712-0.1026611-0.104248-0.199707-0.182312-0.2825928  c-0.008667-0.0092163-0.0200195-0.0159912-0.0290527-0.0249023c-0.0455933-0.0448608-0.0919189-0.0892944-0.1463013-0.1252441  c-0.0390015-0.0256348-0.0820923-0.0411377-0.1235962-0.060791c-0.0126953-0.0060425-0.0205688-0.0175781-0.0336304-0.0231934  l-17.5-7.5c-0.0041504-0.00177-0.0085449-0.0009155-0.0126953-0.0026245  c-0.0847778-0.0351563-0.1724854-0.0436401-0.2597656-0.0542603c-0.0407715-0.005188-0.0788574-0.0227051-0.1203003-0.0228271  c-0.0527954,0.000061-0.1016846,0.0209351-0.1533813,0.0292358c-0.0761719,0.0119019-0.1528931,0.0169067-0.2269897,0.0475464  c-0.0045776,0.0018921-0.0094604,0.0009766-0.0139771,0.0029297l-17.5,7.5  c-0.0123901,0.0053101-0.0198364,0.0162354-0.0319214,0.0219727c-0.0421143,0.0200195-0.0857544,0.0358887-0.1253052,0.0620117  c-0.0543823,0.0359497-0.100708,0.0803833-0.1463013,0.1252441c-0.0090332,0.0089111-0.0203857,0.015686-0.0290527,0.0249023  c-0.078064,0.0828857-0.1368408,0.1799316-0.182312,0.2825928c-0.0101929,0.0230713-0.019043,0.0466309-0.0274658,0.0704346  C31.5264282,26.0241699,31.5,26.1344604,31.5,26.25v0.0045776v0.0012207v19.335144l-16.8935547,7.2401123  c-0.012085,0.005188-0.0194092,0.0158691-0.031189,0.0214844c-0.0423584,0.0201416-0.0863037,0.0361328-0.1260376,0.0625  c-0.0543823,0.0359497-0.100708,0.0803833-0.1463013,0.1252441c-0.0090332,0.0089111-0.0203857,0.015686-0.0290527,0.0249023  c-0.078064,0.0828857-0.1368408,0.1799316-0.182312,0.2825928c-0.0101929,0.0230713-0.019043,0.0466309-0.0274658,0.0704346  C14.0264282,53.5241699,14,53.6344604,14,53.75v0.0045776v0.0012207V73.75  C14,74.1499023,14.2382813,74.5117188,14.6064453,74.6689453z M49,73.0908203l-15.5,6.6425781V61.9091797L49,55.2666016V73.0908203z   M66.5,79.7333984L51,73.0908203V55.2666016l15.5,6.6425781V79.7333984z M84,73.0908203l-15.5,6.6425781V61.9091797L84,55.2666016  V73.0908203z M82.4622192,53.75L67.5,60.1624146L52.5377808,53.75L67.5,47.3375854L82.4622192,53.75z M66.5,45.5908203  L51,52.2333984V34.4091797l15.5-6.6425781V45.5908203z M50,19.8375854L64.9622192,26.25L50,32.6624146L35.0377808,26.25  L50,19.8375854z M33.5,27.7666016L49,34.4091797v17.8242188l-15.5-6.6425781V27.7666016z M32.5,47.3375854L47.4622192,53.75  L32.5,60.1624146L17.5377808,53.75L32.5,47.3375854z M16,55.2666016l15.5,6.6425781v17.8242188L16,73.0908203V55.2666016z"></path></svg>